<?xml version="1.0" encoding="utf-8" standalone="no"?>
<!DOCTYPE svg PUBLIC "-//W3C//DTD SVG 1.1//EN"
  "http://www.w3.org/Graphics/SVG/1.1/DTD/svg11.dtd">
<!-- Created with matplotlib (https://matplotlib.org/) -->
<svg height="504pt" version="1.1" viewBox="0 0 504 504" width="504pt" xmlns="http://www.w3.org/2000/svg" xmlns:xlink="http://www.w3.org/1999/xlink">
 <metadata>
  <rdf:RDF xmlns:cc="http://creativecommons.org/ns#" xmlns:dc="http://purl.org/dc/elements/1.1/" xmlns:rdf="http://www.w3.org/1999/02/22-rdf-syntax-ns#">
   <cc:Work>
    <dc:type rdf:resource="http://purl.org/dc/dcmitype/StillImage"/>
    <dc:date>2021-08-06T11:46:47.753548</dc:date>
    <dc:format>image/svg+xml</dc:format>
    <dc:creator>
     <cc:Agent>
      <dc:title>Matplotlib v3.3.2, https://matplotlib.org/</dc:title>
     </cc:Agent>
    </dc:creator>
   </cc:Work>
  </rdf:RDF>
 </metadata>
 <defs>
  <style type="text/css">*{stroke-linecap:butt;stroke-linejoin:round;}</style>
 </defs>
 <g id="figure_1">
  <g id="patch_1">
   <path d="M 0 504 
L 504 504 
L 504 0 
L 0 0 
z
" style="fill:none;"/>
  </g>
  <g id="axes_1">
   <g id="patch_2">
    <path d="M 63 441 
L 453.6 441 
L 453.6 60.48 
L 63 60.48 
z
" style="fill:none;"/>
   </g>
   <g id="matplotlib.axis_1">
    <g id="xtick_1">
     <g id="line2d_1">
      <defs>
       <path d="M 0 0 
L 0 3.5 
" id="mb6430b3fd1" style="stroke:#000000;stroke-width:0.8;"/>
      </defs>
      <g>
       <use style="stroke:#000000;stroke-width:0.8;" x="80.754545" xlink:href="#mb6430b3fd1" y="441"/>
      </g>
     </g>
     <g id="text_1">
      <!-- 0.0 -->
      <g transform="translate(72.802983 455.598437)scale(0.1 -0.1)">
       <defs>
        <path d="M 31.78125 66.40625 
Q 24.171875 66.40625 20.328125 58.90625 
Q 16.5 51.421875 16.5 36.375 
Q 16.5 21.390625 20.328125 13.890625 
Q 24.171875 6.390625 31.78125 6.390625 
Q 39.453125 6.390625 43.28125 13.890625 
Q 47.125 21.390625 47.125 36.375 
Q 47.125 51.421875 43.28125 58.90625 
Q 39.453125 66.40625 31.78125 66.40625 
z
M 31.78125 74.21875 
Q 44.046875 74.21875 50.515625 64.515625 
Q 56.984375 54.828125 56.984375 36.375 
Q 56.984375 17.96875 50.515625 8.265625 
Q 44.046875 -1.421875 31.78125 -1.421875 
Q 19.53125 -1.421875 13.0625 8.265625 
Q 6.59375 17.96875 6.59375 36.375 
Q 6.59375 54.828125 13.0625 64.515625 
Q 19.53125 74.21875 31.78125 74.21875 
z
" id="DejaVuSans-48"/>
        <path d="M 10.6875 12.40625 
L 21 12.40625 
L 21 0 
L 10.6875 0 
z
" id="DejaVuSans-46"/>
       </defs>
       <use xlink:href="#DejaVuSans-48"/>
       <use x="63.623047" xlink:href="#DejaVuSans-46"/>
       <use x="95.410156" xlink:href="#DejaVuSans-48"/>
      </g>
     </g>
    </g>
    <g id="xtick_2">
     <g id="line2d_2">
      <g>
       <use style="stroke:#000000;stroke-width:0.8;" x="151.772727" xlink:href="#mb6430b3fd1" y="441"/>
      </g>
     </g>
     <g id="text_2">
      <!-- 0.2 -->
      <g transform="translate(143.821165 455.598437)scale(0.1 -0.1)">
       <defs>
        <path d="M 19.1875 8.296875 
L 53.609375 8.296875 
L 53.609375 0 
L 7.328125 0 
L 7.328125 8.296875 
Q 12.9375 14.109375 22.625 23.890625 
Q 32.328125 33.6875 34.8125 36.53125 
Q 39.546875 41.84375 41.421875 45.53125 
Q 43.3125 49.21875 43.3125 52.78125 
Q 43.3125 58.59375 39.234375 62.25 
Q 35.15625 65.921875 28.609375 65.921875 
Q 23.96875 65.921875 18.8125 64.3125 
Q 13.671875 62.703125 7.8125 59.421875 
L 7.8125 69.390625 
Q 13.765625 71.78125 18.9375 73 
Q 24.125 74.21875 28.421875 74.21875 
Q 39.75 74.21875 46.484375 68.546875 
Q 53.21875 62.890625 53.21875 53.421875 
Q 53.21875 48.921875 51.53125 44.890625 
Q 49.859375 40.875 45.40625 35.40625 
Q 44.1875 33.984375 37.640625 27.21875 
Q 31.109375 20.453125 19.1875 8.296875 
z
" id="DejaVuSans-50"/>
       </defs>
       <use xlink:href="#DejaVuSans-48"/>
       <use x="63.623047" xlink:href="#DejaVuSans-46"/>
       <use x="95.410156" xlink:href="#DejaVuSans-50"/>
      </g>
     </g>
    </g>
    <g id="xtick_3">
     <g id="line2d_3">
      <g>
       <use style="stroke:#000000;stroke-width:0.8;" x="222.790909" xlink:href="#mb6430b3fd1" y="441"/>
      </g>
     </g>
     <g id="text_3">
      <!-- 0.4 -->
      <g transform="translate(214.839347 455.598437)scale(0.1 -0.1)">
       <defs>
        <path d="M 37.796875 64.3125 
L 12.890625 25.390625 
L 37.796875 25.390625 
z
M 35.203125 72.90625 
L 47.609375 72.90625 
L 47.609375 25.390625 
L 58.015625 25.390625 
L 58.015625 17.1875 
L 47.609375 17.1875 
L 47.609375 0 
L 37.796875 0 
L 37.796875 17.1875 
L 4.890625 17.1875 
L 4.890625 26.703125 
z
" id="DejaVuSans-52"/>
       </defs>
       <use xlink:href="#DejaVuSans-48"/>
       <use x="63.623047" xlink:href="#DejaVuSans-46"/>
       <use x="95.410156" xlink:href="#DejaVuSans-52"/>
      </g>
     </g>
    </g>
    <g id="xtick_4">
     <g id="line2d_4">
      <g>
       <use style="stroke:#000000;stroke-width:0.8;" x="293.809091" xlink:href="#mb6430b3fd1" y="441"/>
      </g>
     </g>
     <g id="text_4">
      <!-- 0.6 -->
      <g transform="translate(285.857528 455.598437)scale(0.1 -0.1)">
       <defs>
        <path d="M 33.015625 40.375 
Q 26.375 40.375 22.484375 35.828125 
Q 18.609375 31.296875 18.609375 23.390625 
Q 18.609375 15.53125 22.484375 10.953125 
Q 26.375 6.390625 33.015625 6.390625 
Q 39.65625 6.390625 43.53125 10.953125 
Q 47.40625 15.53125 47.40625 23.390625 
Q 47.40625 31.296875 43.53125 35.828125 
Q 39.65625 40.375 33.015625 40.375 
z
M 52.59375 71.296875 
L 52.59375 62.3125 
Q 48.875 64.0625 45.09375 64.984375 
Q 41.3125 65.921875 37.59375 65.921875 
Q 27.828125 65.921875 22.671875 59.328125 
Q 17.53125 52.734375 16.796875 39.40625 
Q 19.671875 43.65625 24.015625 45.921875 
Q 28.375 48.1875 33.59375 48.1875 
Q 44.578125 48.1875 50.953125 41.515625 
Q 57.328125 34.859375 57.328125 23.390625 
Q 57.328125 12.15625 50.6875 5.359375 
Q 44.046875 -1.421875 33.015625 -1.421875 
Q 20.359375 -1.421875 13.671875 8.265625 
Q 6.984375 17.96875 6.984375 36.375 
Q 6.984375 53.65625 15.1875 63.9375 
Q 23.390625 74.21875 37.203125 74.21875 
Q 40.921875 74.21875 44.703125 73.484375 
Q 48.484375 72.75 52.59375 71.296875 
z
" id="DejaVuSans-54"/>
       </defs>
       <use xlink:href="#DejaVuSans-48"/>
       <use x="63.623047" xlink:href="#DejaVuSans-46"/>
       <use x="95.410156" xlink:href="#DejaVuSans-54"/>
      </g>
     </g>
    </g>
    <g id="xtick_5">
     <g id="line2d_5">
      <g>
       <use style="stroke:#000000;stroke-width:0.8;" x="364.827273" xlink:href="#mb6430b3fd1" y="441"/>
      </g>
     </g>
     <g id="text_5">
      <!-- 0.8 -->
      <g transform="translate(356.87571 455.598437)scale(0.1 -0.1)">
       <defs>
        <path d="M 31.78125 34.625 
Q 24.75 34.625 20.71875 30.859375 
Q 16.703125 27.09375 16.703125 20.515625 
Q 16.703125 13.921875 20.71875 10.15625 
Q 24.75 6.390625 31.78125 6.390625 
Q 38.8125 6.390625 42.859375 10.171875 
Q 46.921875 13.96875 46.921875 20.515625 
Q 46.921875 27.09375 42.890625 30.859375 
Q 38.875 34.625 31.78125 34.625 
z
M 21.921875 38.8125 
Q 15.578125 40.375 12.03125 44.71875 
Q 8.5 49.078125 8.5 55.328125 
Q 8.5 64.0625 14.71875 69.140625 
Q 20.953125 74.21875 31.78125 74.21875 
Q 42.671875 74.21875 48.875 69.140625 
Q 55.078125 64.0625 55.078125 55.328125 
Q 55.078125 49.078125 51.53125 44.71875 
Q 48 40.375 41.703125 38.8125 
Q 48.828125 37.15625 52.796875 32.3125 
Q 56.78125 27.484375 56.78125 20.515625 
Q 56.78125 9.90625 50.3125 4.234375 
Q 43.84375 -1.421875 31.78125 -1.421875 
Q 19.734375 -1.421875 13.25 4.234375 
Q 6.78125 9.90625 6.78125 20.515625 
Q 6.78125 27.484375 10.78125 32.3125 
Q 14.796875 37.15625 21.921875 38.8125 
z
M 18.3125 54.390625 
Q 18.3125 48.734375 21.84375 45.5625 
Q 25.390625 42.390625 31.78125 42.390625 
Q 38.140625 42.390625 41.71875 45.5625 
Q 45.3125 48.734375 45.3125 54.390625 
Q 45.3125 60.0625 41.71875 63.234375 
Q 38.140625 66.40625 31.78125 66.40625 
Q 25.390625 66.40625 21.84375 63.234375 
Q 18.3125 60.0625 18.3125 54.390625 
z
" id="DejaVuSans-56"/>
       </defs>
       <use xlink:href="#DejaVuSans-48"/>
       <use x="63.623047" xlink:href="#DejaVuSans-46"/>
       <use x="95.410156" xlink:href="#DejaVuSans-56"/>
      </g>
     </g>
    </g>
    <g id="xtick_6">
     <g id="line2d_6">
      <g>
       <use style="stroke:#000000;stroke-width:0.8;" x="435.845455" xlink:href="#mb6430b3fd1" y="441"/>
      </g>
     </g>
     <g id="text_6">
      <!-- 1.0 -->
      <g transform="translate(427.893892 455.598437)scale(0.1 -0.1)">
       <defs>
        <path d="M 12.40625 8.296875 
L 28.515625 8.296875 
L 28.515625 63.921875 
L 10.984375 60.40625 
L 10.984375 69.390625 
L 28.421875 72.90625 
L 38.28125 72.90625 
L 38.28125 8.296875 
L 54.390625 8.296875 
L 54.390625 0 
L 12.40625 0 
z
" id="DejaVuSans-49"/>
       </defs>
       <use xlink:href="#DejaVuSans-49"/>
       <use x="63.623047" xlink:href="#DejaVuSans-46"/>
       <use x="95.410156" xlink:href="#DejaVuSans-48"/>
      </g>
     </g>
    </g>
    <g id="text_7">
     <!-- Recall -->
     <g transform="translate(243.382812 469.276563)scale(0.1 -0.1)">
      <defs>
       <path d="M 44.390625 34.1875 
Q 47.5625 33.109375 50.5625 29.59375 
Q 53.5625 26.078125 56.59375 19.921875 
L 66.609375 0 
L 56 0 
L 46.6875 18.703125 
Q 43.0625 26.03125 39.671875 28.421875 
Q 36.28125 30.8125 30.421875 30.8125 
L 19.671875 30.8125 
L 19.671875 0 
L 9.8125 0 
L 9.8125 72.90625 
L 32.078125 72.90625 
Q 44.578125 72.90625 50.734375 67.671875 
Q 56.890625 62.453125 56.890625 51.90625 
Q 56.890625 45.015625 53.6875 40.46875 
Q 50.484375 35.9375 44.390625 34.1875 
z
M 19.671875 64.796875 
L 19.671875 38.921875 
L 32.078125 38.921875 
Q 39.203125 38.921875 42.84375 42.21875 
Q 46.484375 45.515625 46.484375 51.90625 
Q 46.484375 58.296875 42.84375 61.546875 
Q 39.203125 64.796875 32.078125 64.796875 
z
" id="DejaVuSans-82"/>
       <path d="M 56.203125 29.59375 
L 56.203125 25.203125 
L 14.890625 25.203125 
Q 15.484375 15.921875 20.484375 11.0625 
Q 25.484375 6.203125 34.421875 6.203125 
Q 39.59375 6.203125 44.453125 7.46875 
Q 49.3125 8.734375 54.109375 11.28125 
L 54.109375 2.78125 
Q 49.265625 0.734375 44.1875 -0.34375 
Q 39.109375 -1.421875 33.890625 -1.421875 
Q 20.796875 -1.421875 13.15625 6.1875 
Q 5.515625 13.8125 5.515625 26.8125 
Q 5.515625 40.234375 12.765625 48.109375 
Q 20.015625 56 32.328125 56 
Q 43.359375 56 49.78125 48.890625 
Q 56.203125 41.796875 56.203125 29.59375 
z
M 47.21875 32.234375 
Q 47.125 39.59375 43.09375 43.984375 
Q 39.0625 48.390625 32.421875 48.390625 
Q 24.90625 48.390625 20.390625 44.140625 
Q 15.875 39.890625 15.1875 32.171875 
z
" id="DejaVuSans-101"/>
       <path d="M 48.78125 52.59375 
L 48.78125 44.1875 
Q 44.96875 46.296875 41.140625 47.34375 
Q 37.3125 48.390625 33.40625 48.390625 
Q 24.65625 48.390625 19.8125 42.84375 
Q 14.984375 37.3125 14.984375 27.296875 
Q 14.984375 17.28125 19.8125 11.734375 
Q 24.65625 6.203125 33.40625 6.203125 
Q 37.3125 6.203125 41.140625 7.25 
Q 44.96875 8.296875 48.78125 10.40625 
L 48.78125 2.09375 
Q 45.015625 0.34375 40.984375 -0.53125 
Q 36.96875 -1.421875 32.421875 -1.421875 
Q 20.0625 -1.421875 12.78125 6.34375 
Q 5.515625 14.109375 5.515625 27.296875 
Q 5.515625 40.671875 12.859375 48.328125 
Q 20.21875 56 33.015625 56 
Q 37.15625 56 41.109375 55.140625 
Q 45.0625 54.296875 48.78125 52.59375 
z
" id="DejaVuSans-99"/>
       <path d="M 34.28125 27.484375 
Q 23.390625 27.484375 19.1875 25 
Q 14.984375 22.515625 14.984375 16.5 
Q 14.984375 11.71875 18.140625 8.90625 
Q 21.296875 6.109375 26.703125 6.109375 
Q 34.1875 6.109375 38.703125 11.40625 
Q 43.21875 16.703125 43.21875 25.484375 
L 43.21875 27.484375 
z
M 52.203125 31.203125 
L 52.203125 0 
L 43.21875 0 
L 43.21875 8.296875 
Q 40.140625 3.328125 35.546875 0.953125 
Q 30.953125 -1.421875 24.3125 -1.421875 
Q 15.921875 -1.421875 10.953125 3.296875 
Q 6 8.015625 6 15.921875 
Q 6 25.140625 12.171875 29.828125 
Q 18.359375 34.515625 30.609375 34.515625 
L 43.21875 34.515625 
L 43.21875 35.40625 
Q 43.21875 41.609375 39.140625 45 
Q 35.0625 48.390625 27.6875 48.390625 
Q 23 48.390625 18.546875 47.265625 
Q 14.109375 46.140625 10.015625 43.890625 
L 10.015625 52.203125 
Q 14.9375 54.109375 19.578125 55.046875 
Q 24.21875 56 28.609375 56 
Q 40.484375 56 46.34375 49.84375 
Q 52.203125 43.703125 52.203125 31.203125 
z
" id="DejaVuSans-97"/>
       <path d="M 9.421875 75.984375 
L 18.40625 75.984375 
L 18.40625 0 
L 9.421875 0 
z
" id="DejaVuSans-108"/>
      </defs>
      <use xlink:href="#DejaVuSans-82"/>
      <use x="64.982422" xlink:href="#DejaVuSans-101"/>
      <use x="126.505859" xlink:href="#DejaVuSans-99"/>
      <use x="181.486328" xlink:href="#DejaVuSans-97"/>
      <use x="242.765625" xlink:href="#DejaVuSans-108"/>
      <use x="270.548828" xlink:href="#DejaVuSans-108"/>
     </g>
    </g>
   </g>
   <g id="matplotlib.axis_2">
    <g id="ytick_1">
     <g id="line2d_7">
      <defs>
       <path d="M 0 0 
L -3.5 0 
" id="m859baea534" style="stroke:#000000;stroke-width:0.8;"/>
      </defs>
      <g>
       <use style="stroke:#000000;stroke-width:0.8;" x="63" xlink:href="#m859baea534" y="433.438445"/>
      </g>
     </g>
     <g id="text_8">
      <!-- 0.0 -->
      <g transform="translate(40.096875 437.237664)scale(0.1 -0.1)">
       <use xlink:href="#DejaVuSans-48"/>
       <use x="63.623047" xlink:href="#DejaVuSans-46"/>
       <use x="95.410156" xlink:href="#DejaVuSans-48"/>
      </g>
     </g>
    </g>
    <g id="ytick_2">
     <g id="line2d_8">
      <g>
       <use style="stroke:#000000;stroke-width:0.8;" x="63" xlink:href="#m859baea534" y="362.306029"/>
      </g>
     </g>
     <g id="text_9">
      <!-- 0.2 -->
      <g transform="translate(40.096875 366.105247)scale(0.1 -0.1)">
       <use xlink:href="#DejaVuSans-48"/>
       <use x="63.623047" xlink:href="#DejaVuSans-46"/>
       <use x="95.410156" xlink:href="#DejaVuSans-50"/>
      </g>
     </g>
    </g>
    <g id="ytick_3">
     <g id="line2d_9">
      <g>
       <use style="stroke:#000000;stroke-width:0.8;" x="63" xlink:href="#m859baea534" y="291.173612"/>
      </g>
     </g>
     <g id="text_10">
      <!-- 0.4 -->
      <g transform="translate(40.096875 294.972831)scale(0.1 -0.1)">
       <use xlink:href="#DejaVuSans-48"/>
       <use x="63.623047" xlink:href="#DejaVuSans-46"/>
       <use x="95.410156" xlink:href="#DejaVuSans-52"/>
      </g>
     </g>
    </g>
    <g id="ytick_4">
     <g id="line2d_10">
      <g>
       <use style="stroke:#000000;stroke-width:0.8;" x="63" xlink:href="#m859baea534" y="220.041196"/>
      </g>
     </g>
     <g id="text_11">
      <!-- 0.6 -->
      <g transform="translate(40.096875 223.840415)scale(0.1 -0.1)">
       <use xlink:href="#DejaVuSans-48"/>
       <use x="63.623047" xlink:href="#DejaVuSans-46"/>
       <use x="95.410156" xlink:href="#DejaVuSans-54"/>
      </g>
     </g>
    </g>
    <g id="ytick_5">
     <g id="line2d_11">
      <g>
       <use style="stroke:#000000;stroke-width:0.8;" x="63" xlink:href="#m859baea534" y="148.90878"/>
      </g>
     </g>
     <g id="text_12">
      <!-- 0.8 -->
      <g transform="translate(40.096875 152.707999)scale(0.1 -0.1)">
       <use xlink:href="#DejaVuSans-48"/>
       <use x="63.623047" xlink:href="#DejaVuSans-46"/>
       <use x="95.410156" xlink:href="#DejaVuSans-56"/>
      </g>
     </g>
    </g>
    <g id="ytick_6">
     <g id="line2d_12">
      <g>
       <use style="stroke:#000000;stroke-width:0.8;" x="63" xlink:href="#m859baea534" y="77.776364"/>
      </g>
     </g>
     <g id="text_13">
      <!-- 1.0 -->
      <g transform="translate(40.096875 81.575582)scale(0.1 -0.1)">
       <use xlink:href="#DejaVuSans-49"/>
       <use x="63.623047" xlink:href="#DejaVuSans-46"/>
       <use x="95.410156" xlink:href="#DejaVuSans-48"/>
      </g>
     </g>
    </g>
    <g id="text_14">
     <!-- Precision -->
     <g transform="translate(34.017187 273.047031)rotate(-90)scale(0.1 -0.1)">
      <defs>
       <path d="M 19.671875 64.796875 
L 19.671875 37.40625 
L 32.078125 37.40625 
Q 38.96875 37.40625 42.71875 40.96875 
Q 46.484375 44.53125 46.484375 51.125 
Q 46.484375 57.671875 42.71875 61.234375 
Q 38.96875 64.796875 32.078125 64.796875 
z
M 9.8125 72.90625 
L 32.078125 72.90625 
Q 44.34375 72.90625 50.609375 67.359375 
Q 56.890625 61.8125 56.890625 51.125 
Q 56.890625 40.328125 50.609375 34.8125 
Q 44.34375 29.296875 32.078125 29.296875 
L 19.671875 29.296875 
L 19.671875 0 
L 9.8125 0 
z
" id="DejaVuSans-80"/>
       <path d="M 41.109375 46.296875 
Q 39.59375 47.171875 37.8125 47.578125 
Q 36.03125 48 33.890625 48 
Q 26.265625 48 22.1875 43.046875 
Q 18.109375 38.09375 18.109375 28.8125 
L 18.109375 0 
L 9.078125 0 
L 9.078125 54.6875 
L 18.109375 54.6875 
L 18.109375 46.1875 
Q 20.953125 51.171875 25.484375 53.578125 
Q 30.03125 56 36.53125 56 
Q 37.453125 56 38.578125 55.875 
Q 39.703125 55.765625 41.0625 55.515625 
z
" id="DejaVuSans-114"/>
       <path d="M 9.421875 54.6875 
L 18.40625 54.6875 
L 18.40625 0 
L 9.421875 0 
z
M 9.421875 75.984375 
L 18.40625 75.984375 
L 18.40625 64.59375 
L 9.421875 64.59375 
z
" id="DejaVuSans-105"/>
       <path d="M 44.28125 53.078125 
L 44.28125 44.578125 
Q 40.484375 46.53125 36.375 47.5 
Q 32.28125 48.484375 27.875 48.484375 
Q 21.1875 48.484375 17.84375 46.4375 
Q 14.5 44.390625 14.5 40.28125 
Q 14.5 37.15625 16.890625 35.375 
Q 19.28125 33.59375 26.515625 31.984375 
L 29.59375 31.296875 
Q 39.15625 29.25 43.1875 25.515625 
Q 47.21875 21.78125 47.21875 15.09375 
Q 47.21875 7.46875 41.1875 3.015625 
Q 35.15625 -1.421875 24.609375 -1.421875 
Q 20.21875 -1.421875 15.453125 -0.5625 
Q 10.6875 0.296875 5.421875 2 
L 5.421875 11.28125 
Q 10.40625 8.6875 15.234375 7.390625 
Q 20.0625 6.109375 24.8125 6.109375 
Q 31.15625 6.109375 34.5625 8.28125 
Q 37.984375 10.453125 37.984375 14.40625 
Q 37.984375 18.0625 35.515625 20.015625 
Q 33.0625 21.96875 24.703125 23.78125 
L 21.578125 24.515625 
Q 13.234375 26.265625 9.515625 29.90625 
Q 5.8125 33.546875 5.8125 39.890625 
Q 5.8125 47.609375 11.28125 51.796875 
Q 16.75 56 26.8125 56 
Q 31.78125 56 36.171875 55.265625 
Q 40.578125 54.546875 44.28125 53.078125 
z
" id="DejaVuSans-115"/>
       <path d="M 30.609375 48.390625 
Q 23.390625 48.390625 19.1875 42.75 
Q 14.984375 37.109375 14.984375 27.296875 
Q 14.984375 17.484375 19.15625 11.84375 
Q 23.34375 6.203125 30.609375 6.203125 
Q 37.796875 6.203125 41.984375 11.859375 
Q 46.1875 17.53125 46.1875 27.296875 
Q 46.1875 37.015625 41.984375 42.703125 
Q 37.796875 48.390625 30.609375 48.390625 
z
M 30.609375 56 
Q 42.328125 56 49.015625 48.375 
Q 55.71875 40.765625 55.71875 27.296875 
Q 55.71875 13.875 49.015625 6.21875 
Q 42.328125 -1.421875 30.609375 -1.421875 
Q 18.84375 -1.421875 12.171875 6.21875 
Q 5.515625 13.875 5.515625 27.296875 
Q 5.515625 40.765625 12.171875 48.375 
Q 18.84375 56 30.609375 56 
z
" id="DejaVuSans-111"/>
       <path d="M 54.890625 33.015625 
L 54.890625 0 
L 45.90625 0 
L 45.90625 32.71875 
Q 45.90625 40.484375 42.875 44.328125 
Q 39.84375 48.1875 33.796875 48.1875 
Q 26.515625 48.1875 22.3125 43.546875 
Q 18.109375 38.921875 18.109375 30.90625 
L 18.109375 0 
L 9.078125 0 
L 9.078125 54.6875 
L 18.109375 54.6875 
L 18.109375 46.1875 
Q 21.34375 51.125 25.703125 53.5625 
Q 30.078125 56 35.796875 56 
Q 45.21875 56 50.046875 50.171875 
Q 54.890625 44.34375 54.890625 33.015625 
z
" id="DejaVuSans-110"/>
      </defs>
      <use xlink:href="#DejaVuSans-80"/>
      <use x="58.552734" xlink:href="#DejaVuSans-114"/>
      <use x="97.416016" xlink:href="#DejaVuSans-101"/>
      <use x="158.939453" xlink:href="#DejaVuSans-99"/>
      <use x="213.919922" xlink:href="#DejaVuSans-105"/>
      <use x="241.703125" xlink:href="#DejaVuSans-115"/>
      <use x="293.802734" xlink:href="#DejaVuSans-105"/>
      <use x="321.585938" xlink:href="#DejaVuSans-111"/>
      <use x="382.767578" xlink:href="#DejaVuSans-110"/>
     </g>
    </g>
   </g>
   <g id="line2d_13">
    <path clip-path="url(#pa204e139b5)" d="M 435.845455 423.703636 
L 384.450718 412.809621 
L 384.450718 412.383768 
L 381.335885 412.401736 
L 381.335885 412.395287 
L 381.335885 412.000974 
L 375.10622 410.472906 
L 373.548804 410.555327 
L 373.548804 410.44516 
L 373.548804 409.651724 
L 370.433971 408.370939 
L 370.433971 408.024251 
L 368.876555 408.141449 
L 368.876555 408.03401 
L 368.876555 406.427983 
L 367.319139 406.551911 
L 367.319139 406.452126 
L 367.319139 406.114093 
L 362.64689 406.401554 
L 362.64689 406.390194 
L 362.64689 406.356057 
L 359.532057 405.674157 
L 359.532057 405.00454 
L 356.417225 404.253378 
L 356.417225 404.035274 
L 353.302392 404.272154 
L 353.302392 404.231094 
L 353.302392 401.87614 
L 347.072727 401.378236 
L 347.072727 401.08833 
L 343.957895 401.415594 
L 343.957895 401.330062 
L 343.957895 401.209548 
L 342.400478 401.365858 
L 342.400478 401.262231 
L 342.400478 401.192773 
L 339.285646 400.765559 
L 339.285646 399.212413 
L 337.72823 399.359326 
L 337.72823 399.260085 
L 333.055981 398.624392 
L 333.055981 398.198532 
L 329.941148 397.693512 
L 329.941148 397.307694 
L 328.383732 397.5107 
L 328.383732 397.419164 
L 328.383732 396.3563 
L 323.711483 396.912253 
L 323.711483 396.888191 
L 323.711483 396.645816 
L 317.481818 397.422032 
L 317.481818 397.398021 
L 314.366986 397.195706 
L 314.366986 395.868507 
L 311.252153 395.460098 
L 311.252153 393.771536 
L 309.694737 393.344637 
L 309.694737 392.496921 
L 308.137321 392.062617 
L 308.137321 391.696754 
L 306.579904 391.949304 
L 306.579904 391.848927 
L 306.579904 391.748063 
L 303.465072 391.852445 
L 303.465072 391.750184 
L 303.465072 391.196188 
L 297.235407 391.648902 
L 297.235407 391.542657 
L 297.235407 387.578492 
L 294.120574 387.772367 
L 294.120574 387.686609 
L 294.120574 385.621266 
L 292.563158 385.876947 
L 292.563158 385.78323 
L 292.563158 385.547313 
L 291.005742 385.085594 
L 291.005742 384.543963 
L 287.890909 385.071311 
L 286.333493 385.039069 
L 286.333493 383.968061 
L 284.776077 384.291048 
L 284.776077 384.23915 
L 284.776077 384.030457 
L 283.21866 384.040934 
L 283.21866 383.935157 
L 281.661244 384.210539 
L 281.661244 384.104672 
L 281.661244 383.568436 
L 280.103828 383.356216 
L 280.103828 383.245781 
L 278.546411 383.582943 
L 278.546411 383.472644 
L 278.546411 383.361855 
L 276.988995 383.086285 
L 276.988995 381.025085 
L 273.874163 381.675419 
L 273.874163 381.308305 
L 272.316746 381.667515 
L 272.316746 381.606175 
L 272.316746 381.483058 
L 270.75933 381.844183 
L 270.75933 381.782762 
L 270.75933 380.132826 
L 269.201914 380.504728 
L 267.644498 380.089133 
L 267.644498 379.955425 
L 264.529665 380.714669 
L 264.529665 380.64835 
L 264.529665 379.633156 
L 262.972249 379.675572 
L 262.972249 379.606021 
L 262.972249 379.25555 
L 261.414833 379.648612 
L 261.414833 379.578391 
L 261.414833 379.295661 
L 259.857416 379.120863 
L 259.857416 377.255561 
L 258.3 377.358947 
L 258.3 377.281274 
L 258.3 376.968421 
L 256.742584 377.385704 
L 256.742584 377.307418 
L 255.185167 377.491601 
L 255.185167 377.412913 
L 252.070335 378.180212 
L 250.512919 378.056778 
L 248.955502 378.486364 
L 248.955502 378.407636 
L 248.955502 377.444998 
L 247.398086 377.88247 
L 247.398086 377.801248 
L 247.398086 377.638089 
L 244.283254 378.195074 
L 244.283254 378.113232 
L 244.283254 378.031147 
L 242.725837 378.477291 
L 242.725837 378.395504 
L 242.725837 376.793948 
L 241.168421 376.992845 
L 241.168421 376.905737 
L 241.168421 376.818361 
L 234.938756 378.421967 
L 234.938756 378.249501 
L 234.938756 378.075951 
L 233.38134 378.548864 
L 233.38134 378.462287 
L 233.38134 377.759716 
L 231.823923 378.15123 
L 231.823923 378.062487 
L 231.823923 377.884142 
L 230.266507 378.100422 
L 230.266507 378.010588 
L 230.266507 377.920461 
L 228.709091 378.409295 
L 228.709091 377.957496 
L 227.151675 378.451215 
L 227.151675 378.360627 
L 227.151675 378.087061 
L 225.594258 378.218789 
L 225.594258 378.126449 
L 224.036842 376.133871 
L 224.036842 375.932449 
L 222.479426 375.746378 
L 222.479426 375.332072 
L 220.92201 375.239195 
L 219.364593 374.161431 
L 219.364593 372.565512 
L 217.807177 372.900218 
L 217.807177 372.546882 
L 216.249761 373.121484 
L 214.692344 373.464055 
L 214.692344 371.646649 
L 213.134928 371.361901 
L 213.134928 370.456618 
L 211.577512 371.067641 
L 211.577512 370.937159 
L 208.462679 372.168927 
L 208.462679 371.910405 
L 203.790431 373.40147 
L 203.790431 372.489845 
L 202.233014 372.867173 
L 202.233014 367.070879 
L 200.675598 367.764631 
L 200.675598 367.128565 
L 199.118182 367.830876 
L 199.118182 367.024887 
L 197.560766 367.737321 
L 197.560766 367.575096 
L 196.003349 368.130767 
L 196.003349 360.126484 
L 194.445933 360.712025 
L 194.445933 359.044944 
L 192.888517 359.427838 
L 192.888517 357.225142 
L 189.773684 358.898488 
L 189.773684 355.637365 
L 188.216268 356.508402 
L 188.216268 355.283402 
L 185.101435 357.062293 
L 185.101435 356.569543 
L 181.986603 358.379889 
L 181.986603 356.888659 
L 180.429187 357.563868 
L 180.429187 354.12704 
L 178.87177 355.093301 
L 178.87177 353.127652 
L 177.314354 354.118125 
L 175.756938 354.83197 
L 175.756938 353.968163 
L 171.084689 357.036961 
L 171.084689 356.178517 
L 169.527273 356.06158 
L 169.527273 354.24806 
L 167.969856 355.024758 
L 167.969856 354.714822 
L 166.41244 355.813784 
L 166.41244 354.242435 
L 164.855024 355.047619 
L 164.855024 354.726345 
L 160.182775 358.173855 
L 160.182775 356.252206 
L 158.625359 357.11611 
L 158.625359 356.787134 
L 157.067943 353.861084 
L 155.510526 354.766648 
L 153.95311 356.04901 
L 153.95311 352.684252 
L 149.280861 356.727016 
L 149.280861 355.192787 
L 146.166029 357.994973 
L 146.166029 357.225142 
L 144.608612 358.658212 
L 144.608612 357.883288 
L 141.49378 360.816344 
L 141.49378 356.804074 
L 139.936364 358.354228 
L 139.936364 357.081614 
L 138.378947 358.241319 
L 138.378947 357.371988 
L 135.264115 360.642112 
L 135.264115 360.213899 
L 133.706699 361.885127 
L 133.706699 354.402427 
L 129.03445 359.934948 
L 129.03445 350.539764 
L 127.477033 352.606154 
L 127.477033 351.36258 
L 125.919617 353.483403 
L 125.919617 351.579712 
L 124.362201 353.770139 
L 124.362201 347.588977 
L 122.804785 349.935174 
L 122.804785 346.13957 
L 121.247368 348.601618 
L 121.247368 347.816092 
L 118.132536 352.911181 
L 118.132536 351.36258 
L 116.57512 349.106199 
L 116.57512 344.522925 
L 115.017703 347.454205 
L 115.017703 338.016911 
L 113.460287 340.077149 
L 111.902871 343.397412 
L 111.902871 342.243039 
L 110.345455 345.677672 
L 110.345455 336.901594 
L 108.788038 336.439695 
L 108.788038 334.947407 
L 107.230622 338.965705 
L 107.230622 332.667522 
L 104.115789 341.456872 
L 104.115789 338.171816 
L 102.558373 341.229757 
L 102.558373 339.489971 
L 101.000957 344.522925 
L 99.443541 346.337527 
L 99.443541 331.820707 
L 96.328708 344.522925 
L 96.328708 314.884418 
L 94.771292 323.060558 
L 94.771292 294.266326 
L 93.213876 304.106779 
L 91.656459 314.884418 
L 91.656459 302.405046 
L 90.099043 314.884418 
L 88.541627 328.83195 
L 86.984211 344.522925 
L 86.984211 255.607404 
L 85.426794 255.607404 
L 83.869378 291.173612 
L 83.869378 77.776364 
L 80.754545 77.776364 
L 80.754545 77.776364 
" style="fill:none;stroke:#d3d3d3;stroke-linecap:square;stroke-width:4;"/>
   </g>
   <g id="line2d_14">
    <path clip-path="url(#pa204e139b5)" d="M 435.845455 422.062048 
L 434.288038 422.110356 
L 434.288038 421.999611 
L 434.288038 421.612563 
L 432.730622 421.662935 
L 432.730622 421.553241 
L 432.730622 420.624858 
L 431.173206 420.679521 
L 431.173206 420.568717 
L 431.173206 419.902591 
L 429.615789 419.960471 
L 429.615789 419.850127 
L 429.615789 418.815041 
L 428.058373 418.877651 
L 428.058373 418.76722 
L 428.058373 418.319756 
L 426.500957 418.384683 
L 426.500957 418.274822 
L 426.500957 417.298424 
L 424.943541 417.367842 
L 424.943541 417.258675 
L 424.943541 416.480231 
L 423.386124 416.553322 
L 423.386124 416.443298 
L 423.386124 412.319509 
L 421.828708 412.409828 
L 421.828708 412.301404 
L 421.828708 410.998227 
L 420.271292 411.094256 
L 420.271292 410.98425 
L 420.271292 410.846856 
L 418.713876 410.943933 
L 418.713876 410.838541 
L 418.713876 409.244504 
L 417.156459 409.348445 
L 417.156459 409.242221 
L 417.156459 407.839308 
L 415.599043 407.949329 
L 415.599043 407.838395 
L 415.599043 406.80405 
L 414.041627 406.918694 
L 414.041627 406.807344 
L 414.041627 405.558707 
L 412.484211 405.678817 
L 412.484211 405.576722 
L 412.484211 405.2554 
L 410.926794 405.377276 
L 410.926794 405.272453 
L 410.926794 405.219747 
L 407.811962 405.370411 
L 407.811962 405.359859 
L 407.811962 403.358285 
L 406.254545 403.489462 
L 406.254545 403.380469 
L 406.254545 400.090138 
L 404.697129 400.234803 
L 404.697129 400.130154 
L 404.697129 398.966072 
L 403.139713 399.11581 
L 403.139713 399.019534 
L 403.139713 395.56702 
L 401.582297 395.730576 
L 401.582297 395.633291 
L 401.582297 395.496245 
L 398.467464 395.80615 
L 398.467464 395.727912 
L 398.467464 393.725766 
L 396.910048 393.898794 
L 396.910048 393.790228 
L 396.910048 390.56469 
L 393.795215 390.936615 
L 393.795215 390.835299 
L 393.795215 390.707974 
L 392.237799 390.895134 
L 392.237799 390.793111 
L 392.237799 389.958973 
L 390.680383 390.14991 
L 390.680383 390.043746 
L 390.680383 389.776043 
L 389.122967 389.968635 
L 389.122967 389.861036 
L 389.122967 389.48021 
L 387.56555 389.674903 
L 387.56555 389.565289 
L 387.56555 389.427496 
L 386.008134 389.62338 
L 386.008134 389.512945 
L 386.008134 387.935985 
L 384.450718 388.138572 
L 384.450718 388.049632 
L 384.450718 386.386813 
L 382.893301 386.596324 
L 382.893301 386.500728 
L 382.893301 386.146845 
L 381.335885 386.358348 
L 381.335885 386.261275 
L 381.335885 385.835961 
L 379.778469 386.049743 
L 379.778469 385.950879 
L 379.778469 383.004826 
L 378.221053 383.23042 
L 378.221053 383.118847 
L 378.221053 379.780106 
L 376.663636 380.018844 
L 376.663636 379.934252 
L 376.663636 377.265714 
L 375.10622 377.514873 
L 375.10622 377.421667 
L 375.10622 376.950938 
L 373.548804 377.202556 
L 373.548804 377.107803 
L 373.548804 375.092484 
L 371.991388 375.352149 
L 371.991388 375.25051 
L 371.991388 374.633132 
L 370.433971 374.895837 
L 370.433971 374.792038 
L 370.433971 374.373135 
L 368.876555 374.63819 
L 368.876555 374.532908 
L 368.876555 374.427248 
L 367.319139 374.693541 
L 367.319139 374.587885 
L 367.319139 372.731745 
L 365.761722 373.005612 
L 365.761722 372.893179 
L 365.761722 372.209695 
L 364.204306 372.486939 
L 364.204306 372.429492 
L 364.204306 369.78997 
L 362.64689 370.077385 
L 362.64689 370.01496 
L 362.64689 369.5111 
L 361.089474 369.801094 
L 361.089474 369.737774 
L 361.089474 364.600623 
L 359.532057 364.909368 
L 359.532057 364.835522 
L 359.532057 363.401577 
L 357.974641 363.716143 
L 357.974641 363.639271 
L 357.974641 363.096389 
L 356.417225 363.413764 
L 356.417225 363.335785 
L 356.417225 363.179306 
L 354.859809 363.498192 
L 354.859809 363.419959 
L 354.859809 362.467327 
L 353.302392 362.790472 
L 353.302392 362.71019 
L 353.302392 362.468246 
L 351.744976 362.793237 
L 351.744976 362.7125 
L 351.744976 362.059896 
L 350.18756 362.388168 
L 350.18756 362.306029 
L 350.18756 362.223699 
L 348.630144 362.553302 
L 348.630144 362.471069 
L 348.630144 360.871567 
L 347.072727 361.207785 
L 347.072727 361.121898 
L 347.072727 360.689383 
L 345.515311 361.028201 
L 345.515311 360.941378 
L 345.515311 358.793317 
L 343.957895 359.14068 
L 343.957895 359.048727 
L 343.957895 358.771499 
L 342.400478 359.120995 
L 342.400478 359.028445 
L 342.400478 358.279665 
L 339.285646 358.987114 
L 339.285646 358.89311 
L 339.285646 358.704387 
L 337.72823 359.060443 
L 337.72823 358.966055 
L 337.72823 358.105655 
L 336.170813 358.465975 
L 336.170813 358.369486 
L 336.170813 356.48781 
L 334.613397 356.855989 
L 334.613397 356.754689 
L 334.613397 356.346797 
L 333.055981 356.71773 
L 333.055981 356.615435 
L 333.055981 353.414477 
L 331.498565 353.79784 
L 331.498565 353.68692 
L 331.498565 346.149428 
L 328.383732 346.970141 
L 328.383732 346.837724 
L 326.826316 347.250394 
L 326.826316 342.508657 
L 325.2689 342.937721 
L 325.2689 341.142665 
L 322.154067 342.016185 
L 322.154067 339.84316 
L 320.596651 340.288852 
L 320.596651 339.811162 
L 319.039234 340.259852 
L 319.039234 335.214079 
L 317.481818 335.679609 
L 317.481818 332.953991 
L 315.924402 333.429182 
L 315.924402 333.055315 
L 314.366986 333.533366 
L 314.366986 327.376194 
L 312.809569 327.873405 
L 312.809569 324.621915 
L 311.252153 325.129828 
L 311.252153 324.906511 
L 309.694737 325.41711 
L 309.694737 324.743381 
L 308.137321 325.257895 
L 308.137321 324.805257 
L 306.579904 325.323137 
L 306.579904 321.8129 
L 305.022488 322.342263 
L 305.022488 319.3731 
L 303.465072 319.912379 
L 303.465072 318.889621 
L 301.907656 319.433895 
L 301.907656 318.916868 
L 300.350239 319.464914 
L 300.350239 318.154874 
L 298.792823 318.708741 
L 298.792823 317.910159 
L 297.235407 318.468609 
L 297.235407 316.841678 
L 294.120574 317.974689 
L 294.120574 315.458529 
L 292.563158 316.035428 
L 292.563158 313.413524 
L 291.005742 313.999686 
L 291.005742 313.402492 
L 289.448325 313.993034 
L 289.448325 310.2893 
L 286.333493 311.49716 
L 286.333493 309.566691 
L 284.776077 310.179893 
L 284.776077 308.527633 
L 283.21866 309.147933 
L 283.21866 307.454601 
L 281.661244 308.082138 
L 281.661244 305.637864 
L 276.988995 307.558045 
L 276.988995 306.48824 
L 275.431579 307.13799 
L 275.431579 306.416273 
L 272.316746 307.730295 
L 272.316746 302.852069 
L 270.75933 303.525948 
L 270.75933 301.551594 
L 269.201914 302.233836 
L 269.201914 300.202805 
L 267.644498 300.89357 
L 267.644498 298.376895 
L 266.087081 299.077214 
L 266.087081 298.649312 
L 264.529665 299.354977 
L 264.529665 298.057395 
L 262.972249 298.770278 
L 262.972249 296.555341 
L 261.414833 297.277384 
L 261.414833 292.148029 
L 258.3 293.626454 
L 258.3 292.655538 
L 256.742584 293.404246 
L 256.742584 290.414192 
L 255.185167 291.173612 
L 255.185167 290.150124 
L 253.627751 290.916817 
L 253.627751 290.400434 
L 252.070335 291.173612 
L 252.070335 290.131379 
L 250.512919 290.912096 
L 250.512919 290.386169 
L 247.398086 291.966911 
L 247.398086 291.439032 
L 245.84067 292.239267 
L 245.84067 290.091751 
L 244.283254 290.902115 
L 244.283254 287.561419 
L 242.725837 288.384106 
L 242.725837 284.28983 
L 241.168421 285.125917 
L 241.168421 283.915203 
L 239.611005 284.760034 
L 239.611005 283.531287 
L 238.053589 284.385042 
L 238.053589 281.869372 
L 236.496172 282.734173 
L 236.496172 277.446304 
L 233.38134 279.213295 
L 233.38134 276.434463 
L 231.823923 277.333368 
L 231.823923 273.719825 
L 225.594258 277.416871 
L 225.594258 266.385043 
L 224.036842 267.342448 
L 224.036842 266.495019 
L 222.479426 267.462807 
L 222.479426 264.869438 
L 220.92201 265.848982 
L 220.92201 261.343889 
L 217.807177 263.339189 
L 217.807177 259.559205 
L 216.249761 260.574752 
L 216.249761 247.037234 
L 211.577512 250.152464 
L 211.577512 244.352275 
L 210.020096 245.413268 
L 210.020096 231.246988 
L 206.905263 233.378524 
L 206.905263 227.662526 
L 203.790431 229.83479 
L 203.790431 225.310264 
L 200.675598 227.528819 
L 200.675598 225.968897 
L 199.118182 227.100138 
L 199.118182 225.51292 
L 192.888517 230.20297 
L 191.3311 231.422383 
L 191.3311 228.137569 
L 189.773684 229.370038 
L 189.773684 225.968897 
L 188.216268 227.214213 
L 188.216268 225.46655 
L 185.101435 228.012932 
L 185.101435 222.559158 
L 183.544019 223.851861 
L 183.544019 220.041196 
L 180.429187 222.67573 
L 180.429187 220.705985 
L 178.87177 222.054378 
L 178.87177 209.371334 
L 175.756938 212.056945 
L 175.756938 209.774662 
L 174.199522 211.149644 
L 174.199522 208.809762 
L 172.642105 210.203734 
L 172.642105 207.803361 
L 169.527273 210.661097 
L 169.527273 203.066415 
L 167.969856 204.50653 
L 167.969856 196.330391 
L 163.297608 200.721281 
L 163.297608 197.812316 
L 161.740191 199.331758 
L 161.740191 190.090705 
L 160.182775 191.58823 
L 160.182775 188.319983 
L 155.510526 192.990841 
L 155.510526 189.555875 
L 153.95311 191.175868 
L 153.95311 183.944149 
L 152.395694 185.552752 
L 152.395694 169.560127 
L 147.723445 174.227098 
L 144.608612 177.611334 
L 144.608612 168.30853 
L 143.051196 169.985051 
L 143.051196 165.014233 
L 139.936364 168.435326 
L 139.936364 151.872631 
L 136.821531 155.094207 
L 136.821531 135.674842 
L 135.264115 137.053377 
L 135.264115 122.234124 
L 132.149282 124.574006 
L 132.149282 107.41487 
L 130.591866 108.261685 
L 130.591866 98.697663 
L 127.477033 100.005244 
L 124.362201 101.487169 
L 121.247368 103.180798 
L 118.132536 105.134985 
L 115.017703 107.41487 
L 111.902871 110.10928 
L 108.788038 113.342572 
L 107.230622 115.214477 
L 107.230622 97.535368 
L 105.673206 98.697663 
L 104.115789 100.005244 
L 104.115789 77.776364 
L 80.754545 77.776364 
L 80.754545 77.776364 
" style="fill:none;stroke:#1754f1;stroke-linecap:square;stroke-width:4;"/>
   </g>
   <g id="patch_3">
    <path d="M 63 441 
L 63 60.48 
" style="fill:none;stroke:#000000;stroke-linecap:square;stroke-linejoin:miter;stroke-width:0.8;"/>
   </g>
   <g id="patch_4">
    <path d="M 453.6 441 
L 453.6 60.48 
" style="fill:none;stroke:#000000;stroke-linecap:square;stroke-linejoin:miter;stroke-width:0.8;"/>
   </g>
   <g id="patch_5">
    <path d="M 63 441 
L 453.6 441 
" style="fill:none;stroke:#000000;stroke-linecap:square;stroke-linejoin:miter;stroke-width:0.8;"/>
   </g>
   <g id="patch_6">
    <path d="M 63 60.48 
L 453.6 60.48 
" style="fill:none;stroke:#000000;stroke-linecap:square;stroke-linejoin:miter;stroke-width:0.8;"/>
   </g>
   <g id="legend_1">
    <g id="patch_7">
     <path d="M 340.996875 99.83625 
L 448.6 99.83625 
Q 450.6 99.83625 450.6 97.83625 
L 450.6 69.48 
Q 450.6 67.48 448.6 67.48 
L 340.996875 67.48 
Q 338.996875 67.48 338.996875 69.48 
L 338.996875 97.83625 
Q 338.996875 99.83625 340.996875 99.83625 
z
" style="fill:#4c4c4c;opacity:0.5;stroke:#4c4c4c;stroke-linejoin:miter;"/>
    </g>
    <g id="patch_8">
     <path d="M 338.996875 97.83625 
L 446.6 97.83625 
Q 448.6 97.83625 448.6 95.83625 
L 448.6 67.48 
Q 448.6 65.48 446.6 65.48 
L 338.996875 65.48 
Q 336.996875 65.48 336.996875 67.48 
L 336.996875 95.83625 
Q 336.996875 97.83625 338.996875 97.83625 
z
" style="fill:#ffffff;stroke:#cccccc;stroke-linejoin:miter;"/>
    </g>
    <g id="line2d_15">
     <path d="M 340.996875 73.578438 
L 360.996875 73.578438 
" style="fill:none;stroke:#d3d3d3;stroke-linecap:square;stroke-width:4;"/>
    </g>
    <g id="line2d_16"/>
    <g id="text_15">
     <!-- Baseline Model -->
     <g transform="translate(368.996875 77.078438)scale(0.1 -0.1)">
      <defs>
       <path d="M 19.671875 34.8125 
L 19.671875 8.109375 
L 35.5 8.109375 
Q 43.453125 8.109375 47.28125 11.40625 
Q 51.125 14.703125 51.125 21.484375 
Q 51.125 28.328125 47.28125 31.5625 
Q 43.453125 34.8125 35.5 34.8125 
z
M 19.671875 64.796875 
L 19.671875 42.828125 
L 34.28125 42.828125 
Q 41.5 42.828125 45.03125 45.53125 
Q 48.578125 48.25 48.578125 53.8125 
Q 48.578125 59.328125 45.03125 62.0625 
Q 41.5 64.796875 34.28125 64.796875 
z
M 9.8125 72.90625 
L 35.015625 72.90625 
Q 46.296875 72.90625 52.390625 68.21875 
Q 58.5 63.53125 58.5 54.890625 
Q 58.5 48.1875 55.375 44.234375 
Q 52.25 40.28125 46.1875 39.3125 
Q 53.46875 37.75 57.5 32.78125 
Q 61.53125 27.828125 61.53125 20.40625 
Q 61.53125 10.640625 54.890625 5.3125 
Q 48.25 0 35.984375 0 
L 9.8125 0 
z
" id="DejaVuSans-66"/>
       <path id="DejaVuSans-32"/>
       <path d="M 9.8125 72.90625 
L 24.515625 72.90625 
L 43.109375 23.296875 
L 61.8125 72.90625 
L 76.515625 72.90625 
L 76.515625 0 
L 66.890625 0 
L 66.890625 64.015625 
L 48.09375 14.015625 
L 38.1875 14.015625 
L 19.390625 64.015625 
L 19.390625 0 
L 9.8125 0 
z
" id="DejaVuSans-77"/>
       <path d="M 45.40625 46.390625 
L 45.40625 75.984375 
L 54.390625 75.984375 
L 54.390625 0 
L 45.40625 0 
L 45.40625 8.203125 
Q 42.578125 3.328125 38.25 0.953125 
Q 33.9375 -1.421875 27.875 -1.421875 
Q 17.96875 -1.421875 11.734375 6.484375 
Q 5.515625 14.40625 5.515625 27.296875 
Q 5.515625 40.1875 11.734375 48.09375 
Q 17.96875 56 27.875 56 
Q 33.9375 56 38.25 53.625 
Q 42.578125 51.265625 45.40625 46.390625 
z
M 14.796875 27.296875 
Q 14.796875 17.390625 18.875 11.75 
Q 22.953125 6.109375 30.078125 6.109375 
Q 37.203125 6.109375 41.296875 11.75 
Q 45.40625 17.390625 45.40625 27.296875 
Q 45.40625 37.203125 41.296875 42.84375 
Q 37.203125 48.484375 30.078125 48.484375 
Q 22.953125 48.484375 18.875 42.84375 
Q 14.796875 37.203125 14.796875 27.296875 
z
" id="DejaVuSans-100"/>
      </defs>
      <use xlink:href="#DejaVuSans-66"/>
      <use x="68.603516" xlink:href="#DejaVuSans-97"/>
      <use x="129.882812" xlink:href="#DejaVuSans-115"/>
      <use x="181.982422" xlink:href="#DejaVuSans-101"/>
      <use x="243.505859" xlink:href="#DejaVuSans-108"/>
      <use x="271.289062" xlink:href="#DejaVuSans-105"/>
      <use x="299.072266" xlink:href="#DejaVuSans-110"/>
      <use x="362.451172" xlink:href="#DejaVuSans-101"/>
      <use x="423.974609" xlink:href="#DejaVuSans-32"/>
      <use x="455.761719" xlink:href="#DejaVuSans-77"/>
      <use x="542.041016" xlink:href="#DejaVuSans-111"/>
      <use x="603.222656" xlink:href="#DejaVuSans-100"/>
      <use x="666.699219" xlink:href="#DejaVuSans-101"/>
      <use x="728.222656" xlink:href="#DejaVuSans-108"/>
     </g>
    </g>
    <g id="line2d_17">
     <path d="M 340.996875 88.256563 
L 360.996875 88.256563 
" style="fill:none;stroke:#1754f1;stroke-linecap:square;stroke-width:4;"/>
    </g>
    <g id="line2d_18"/>
    <g id="text_16">
     <!-- XGBoost -->
     <g transform="translate(368.996875 91.756563)scale(0.1 -0.1)">
      <defs>
       <path d="M 6.296875 72.90625 
L 16.890625 72.90625 
L 35.015625 45.796875 
L 53.21875 72.90625 
L 63.8125 72.90625 
L 40.375 37.890625 
L 65.375 0 
L 54.78125 0 
L 34.28125 31 
L 13.625 0 
L 2.984375 0 
L 29 38.921875 
z
" id="DejaVuSans-88"/>
       <path d="M 59.515625 10.40625 
L 59.515625 29.984375 
L 43.40625 29.984375 
L 43.40625 38.09375 
L 69.28125 38.09375 
L 69.28125 6.78125 
Q 63.578125 2.734375 56.6875 0.65625 
Q 49.8125 -1.421875 42 -1.421875 
Q 24.90625 -1.421875 15.25 8.5625 
Q 5.609375 18.5625 5.609375 36.375 
Q 5.609375 54.25 15.25 64.234375 
Q 24.90625 74.21875 42 74.21875 
Q 49.125 74.21875 55.546875 72.453125 
Q 61.96875 70.703125 67.390625 67.28125 
L 67.390625 56.78125 
Q 61.921875 61.421875 55.765625 63.765625 
Q 49.609375 66.109375 42.828125 66.109375 
Q 29.4375 66.109375 22.71875 58.640625 
Q 16.015625 51.171875 16.015625 36.375 
Q 16.015625 21.625 22.71875 14.15625 
Q 29.4375 6.6875 42.828125 6.6875 
Q 48.046875 6.6875 52.140625 7.59375 
Q 56.25 8.5 59.515625 10.40625 
z
" id="DejaVuSans-71"/>
       <path d="M 18.3125 70.21875 
L 18.3125 54.6875 
L 36.8125 54.6875 
L 36.8125 47.703125 
L 18.3125 47.703125 
L 18.3125 18.015625 
Q 18.3125 11.328125 20.140625 9.421875 
Q 21.96875 7.515625 27.59375 7.515625 
L 36.8125 7.515625 
L 36.8125 0 
L 27.59375 0 
Q 17.1875 0 13.234375 3.875 
Q 9.28125 7.765625 9.28125 18.015625 
L 9.28125 47.703125 
L 2.6875 47.703125 
L 2.6875 54.6875 
L 9.28125 54.6875 
L 9.28125 70.21875 
z
" id="DejaVuSans-116"/>
      </defs>
      <use xlink:href="#DejaVuSans-88"/>
      <use x="68.505859" xlink:href="#DejaVuSans-71"/>
      <use x="145.996094" xlink:href="#DejaVuSans-66"/>
      <use x="214.599609" xlink:href="#DejaVuSans-111"/>
      <use x="275.78125" xlink:href="#DejaVuSans-111"/>
      <use x="336.962891" xlink:href="#DejaVuSans-115"/>
      <use x="389.0625" xlink:href="#DejaVuSans-116"/>
     </g>
    </g>
   </g>
  </g>
 </g>
 <defs>
  <clipPath id="pa204e139b5">
   <rect height="380.52" width="390.6" x="63" y="60.48"/>
  </clipPath>
 </defs>
</svg>
